<?xml version="1.0" encoding="UTF-8"?>
<svg width="390pt" height="390pt" version="1.1" viewBox="0 0 390 390" xmlns="http://www.w3.org/2000/svg">
 <path id="path24-6" d="m351.51 131.13 13.477 76.742-6.7186-4.4339c-40.865-26.983-92.119-29.953-135.03-8.293 50.044 32.076 79.501 88.505 75.606 148.95l-0.45128 8.2262-12.26 3.9612-108-187.06c2.9004-59.18 36.934-112.43 91.215-139.61l7.3136-3.5279zm0 0 13.477 76.742-6.7186-4.4339c-40.865-26.983-92.119-29.953-135.03-8.293 50.044 32.076 79.501 88.505 75.606 148.95l-0.45128 8.2262-12.26 3.9612-86.955 26.992-102.46-45.46 7.315-3.5332c43.998-21.591 71.791-64.655 74.553-112.67-52.535 27.21-116.55 24.332-166.67-9.0838l-6.8657-4.6964 24.261-83.979 58.411-77.025 17.66-3.6151 13.01-2.6622-0.59295 7.9652c-0.34809 5.3971-0.28529 10.904 0.0327 16.26 2.1633 42.747 24.513 81.458 60.191 104.85 0 0-0.15039-0.26049 0.11009-0.41088 2.9004-59.18 36.934-112.43 91.215-139.61l7.3136-3.5279z" fill="#1be4e4"/>
 <path id="path16" d="m375 195c0 99.301-80.699 180-180 180s-180-80.699-180-180 80.699-180 180-180 180 80.699 180 180z" fill="#474f54"/>
 <path id="path18" d="m375 195c0 99.301-80.699 180-180 180v-360c99.301 0 180 80.699 180 180z" fill="#32393f"/>
 <path id="path24" d="m351.51 131.13 13.477 76.742-6.7186-4.4339c-40.865-26.983-92.119-29.953-135.03-8.293 50.044 32.076 79.501 88.505 75.606 148.95l-0.45128 8.2262-12.26 3.9612-108-187.06c2.9004-59.18 36.934-112.43 91.215-139.61l7.3136-3.5279zm0 0 13.477 76.742-6.7186-4.4339c-40.865-26.983-92.119-29.953-135.03-8.293 50.044 32.076 79.501 88.505 75.606 148.95l-0.45128 8.2262-12.26 3.9612-86.955 26.992-102.46-45.46 7.315-3.5332c43.998-21.591 71.791-64.655 74.553-112.67-52.535 27.21-116.55 24.332-166.67-9.0838l-6.8657-4.6964 24.261-83.979 58.411-77.025 17.66-3.6151 13.01-2.6622-0.59295 7.9652c-0.34808 5.3971-0.28528 10.904 0.0327 16.26 2.1633 42.747 24.513 81.458 60.191 104.85 0 0-0.15039-0.26049 0.11009-0.41088 2.9004-59.18 36.934-112.43 91.215-139.61l7.3136-3.5279z" fill="#1be4e4"/>
 <path id="rect874" d="m276.65 26.081-7.314 3.5273c-0.84814 0.42477-1.6916 0.85604-2.5298 1.2935-3.3529 1.7497-6.6252 3.6-9.8159 5.5459-2.393 1.4594-4.7409 2.9731-7.04 4.5381s-4.5498 3.1808-6.7529 4.8472c-0.73436 0.55546-1.4635 1.1167-2.187 1.6831-0.72352 0.56642-1.4422 1.1381-2.1548 1.7153-3.5627 2.8859-6.9895 5.9068-10.273 9.0513-0.65646 0.62872-1.3076 1.2628-1.9526 1.9014-3.8718 3.833-7.5376 7.8437-10.988 12.013-0.57502 0.69493-1.1435 1.3939-1.7065 2.0977-0.56303 0.70373-1.1205 1.4116-1.6714 2.124-0.55094 0.71239-1.096 1.4295-1.6348 2.1504-0.53876 0.72088-1.0702 1.4461-1.5967 2.1753-1.053 1.4585-2.0815 2.9329-3.085 4.4238-1.0035 1.491-1.9822 2.9983-2.9356 4.5205-1.43 2.2833-2.8039 4.6005-4.1191 6.9507-0.43841 0.78338-0.86943 1.5708-1.2949 2.3613-0.42549 0.7905-0.8458 1.5844-1.2583 2.3818-0.41249 0.79746-0.81787 1.5981-1.2173 2.4023-0.0428 0.0861-0.0834 0.17314-0.12598 0.25928v277.38l4.1704 1.8501 86.955-26.991 12.259-3.9609 0.45117-8.2266c0.0608-0.9445 0.11358-1.8876 0.1582-2.8301 0.0446-0.94247 0.0814-1.884 0.10986-2.8242 0.0285-0.94028 0.049-1.8804 0.0615-2.8184s0.0167-1.8742 0.0132-2.8096c-0.0105-2.8062-0.0924-5.6009-0.24462-8.3818-0.15225-2.7809-0.37514-5.5484-0.66651-8.2998-0.48561-4.5856-1.1621-9.1276-2.0244-13.616-0.34493-1.7952-0.7197-3.581-1.1235-5.3584-0.60575-2.6662-1.278-5.3124-2.0142-7.9351-0.24536-0.87423-0.49766-1.7457-0.75732-2.6148-0.77897-2.6072-1.6225-5.1908-2.5283-7.749-0.90583-2.5582-1.8733-5.0903-2.9033-7.5952-0.34335-0.83498-0.69481-1.6674-1.0518-2.4961s-0.71938-1.6547-1.0898-2.477c-0.74092-1.6447-1.5098-3.2758-2.3042-4.894s-1.6154-3.2229-2.4624-4.8135c-0.42352-0.79527-0.85251-1.5879-1.2891-2.376s-0.8806-1.5718-1.3301-2.3525c-1.3484-2.3424-2.7543-4.652-4.2173-6.9258-0.48767-0.75793-0.98222-1.5117-1.4824-2.2617-1.5006-2.25-3.0568-4.4644-4.6685-6.6401-1.0744-1.4505-2.1731-2.8834-3.2959-4.2993-1.6842-2.124-3.4224-4.2092-5.2134-6.252-0.59698-0.68092-1.2004-1.3572-1.8091-2.0288s-1.2226-1.3374-1.8428-1.9995c-0.62019-0.6621-1.2463-1.3192-1.8779-1.9717-1.2633-1.3049-2.5498-2.5915-3.8584-3.8569-1.3086-1.2654-2.6401-2.5107-3.9932-3.7354s-2.7282-2.4281-4.125-3.6108c-0.6984-0.59136-1.4017-1.1772-2.1108-1.7578-3.5459-2.9032-7.2265-5.6721-11.035-8.2954-0.76163-0.52466-1.528-1.0426-2.2998-1.5557-0.77183-0.51301-1.5486-1.0208-2.3306-1.522 0.67055-0.33844 1.344-0.67113 2.0186-0.99755 6.071-2.9378 12.3-5.3878 18.637-7.3535 2.8165-0.87365 5.6551-1.6514 8.5093-2.3335 1.4271-0.34107 2.8572-0.65891 4.292-0.95215 2.8696-0.58649 5.7548-1.0768 8.6484-1.4722 1.4468-0.19771 2.8951-0.37149 4.3462-0.52148 2.9022-0.3 5.8121-0.50586 8.7246-0.61524 1.4562-0.0547 2.9125-0.0852 4.3696-0.0923 1.4571-7e-3 2.9157 9e-3 4.3726 0.0498 2.9136 0.0809 5.8248 0.25786 8.7305 0.52881s5.8054 0.6365 8.6938 1.0972c1.4442 0.23033 2.886 0.48401 4.3242 0.76172 4.3147 0.83311 8.5993 1.8804 12.839 3.1392 1.4134 0.4196 2.8218 0.86181 4.2246 1.3286 1.4028 0.46682 2.7998 0.95816 4.1909 1.4722 1.3911 0.514 2.7761 1.0516 4.1543 1.6128 1.3782 0.56114 2.7491 1.1452 4.1133 1.7534 1.3642 0.60826 2.7218 1.2402 4.0708 1.8955 1.349 0.65533 2.6897 1.3338 4.0225 2.0361 1.3328 0.70235 2.6573 1.4289 3.9726 2.1782 2.6307 1.4987 5.2257 3.0904 7.7798 4.7768l6.7178 4.4341-13.477-76.742z" fill="#15b3b3" />
 <path id="path26" d="m195 0c-107.4 0-195 87.598-195 195 0 107.4 87.598 195 195 195s195-87.602 195-195c0-107.4-87.598-195-195-195zm0 360c-90.902 0-165-74.102-165-165 0-90.902 74.098-165 165-165s165 74.098 165 165c0 90.898-74.098 165-165 165z" fill="#575f64"/>
 <path id="path28" d="m390 195c0 107.4-87.598 195-195 195v-30c90.902 0 165-74.102 165-165 0-90.902-74.098-165-165-165v-30c107.4 0 195 87.598 195 195z" fill="#474f54"/>
 <circle id="path899" cx="195" cy="195" r="19.475" fill="#575f64" stroke="#000" stroke-dasharray="0.14173228, 0.14173228" stroke-width=".14173"/>
 <path id="path899-3" d="m195 175.53a19.475 19.475 0 0 0-0.2915 0.0103v38.924a19.475 19.475 0 0 0 0.2915 0.0146 19.475 19.475 0 0 0 19.474-19.474 19.475 19.475 0 0 0-19.474-19.475z" fill="#474f54"/>
</svg>
